<?xml version="1.0"?>
<svg width="80" height="80" xmlns="http://www.w3.org/2000/svg" xmlns:svg="http://www.w3.org/2000/svg">
 <defs>
  <filter color-interpolation-filters="sRGB" filterUnits="userSpaceOnUse" height="80" id="filter0_d_1_2064" width="80" x="0" y="0">
   <feFlood flood-opacity="0" result="BackgroundImageFix"/>
   <feColorMatrix in="SourceAlpha" result="hardAlpha" type="matrix" values="0 0 0 0 0 0 0 0 0 0 0 0 0 0 0 0 0 0 127 0"/>
   <feOffset dy="10"/>
   <feGaussianBlur stdDeviation="10"/>
   <feColorMatrix type="matrix" values="0 0 0 0 1 0 0 0 0 0.478431 0 0 0 0 0 0 0 0 0.2 0"/>
   <feBlend in2="BackgroundImageFix"/>
   <feBlend in="SourceGraphic" in2="effect1_dropShadow_1_2064"/>
  </filter>
  <linearGradient id="paint0_linear_1_2064" x1="0" x2="1" y1="0.5" y2="0.5">
   <stop stop-color="#FF7A00"/>
   <stop offset="1" stop-color="#FFB039"/>
  </linearGradient>
 </defs>
 <g class="layer">
  <title>Layer 1</title>
  <g filter="url(#filter0_d_1_2064)" id="Group 25">
   <circle cx="0.15" cy="10.24" fill="url(#paint0_linear_1_2064)" id="Ellipse 9" r="20" transform="matrix(-1.98667 0 0 1.98667 40.4175 19.6292)"/>
   <path d="m45.52,23.46c0.18,-0.2 0.32,-0.42 0.42,-0.66c0.08,-0.26 0.12,-0.52 0.12,-0.77c0,-0.26 -0.06,-0.52 -0.18,-0.75c-0.1,-0.24 -0.26,-0.46 -0.44,-0.64c-0.2,-0.18 -0.42,-0.32 -0.66,-0.4c-0.26,-0.1 -0.52,-0.14 -0.77,-0.14c-0.26,0 -0.52,0.06 -0.75,0.18c-0.24,0.1 -0.46,0.26 -0.64,0.44l-16.89,17.88c-0.34,0.38 -0.54,0.85 -0.54,1.37c0,0.52 0.2,0.99 0.54,1.37l16.89,17.88c0.18,0.2 0.4,0.34 0.64,0.46c0.24,0.12 0.5,0.18 0.75,0.18c0.28,0.02 0.54,-0.04 0.77,-0.12c0.26,-0.1 0.48,-0.24 0.68,-0.42c0.18,-0.18 0.34,-0.4 0.44,-0.64c0.12,-0.24 0.18,-0.5 0.18,-0.77c0,-0.26 -0.04,-0.52 -0.14,-0.75c-0.1,-0.26 -0.24,-0.48 -0.42,-0.66l-15.6,-16.53l15.6,-16.51z" fill="white" id="Vector"/>
  </g>
 </g>
</svg>