<svg width="30" height="30" viewBox="0 0 30 30" fill="none" xmlns="http://www.w3.org/2000/svg">
<g id="Mail">
<circle id="Ellipse 11" cx="15" cy="15" r="15" fill="white"/>
<g id="Group">
<path id="Vector" d="M22.5021 9H8.49792C8.36588 9.00015 8.23929 9.05071 8.14594 9.1406C8.05259 9.23049 8.0001 9.35235 8 9.47944V10.4439C8 10.4884 8.05006 10.5394 8.09097 10.56L15.4519 14.6068C15.4707 14.6172 15.4921 14.6226 15.5138 14.6224C15.536 14.6224 15.5578 14.6167 15.5769 14.6059L22.7154 10.5639C22.7555 10.5424 22.8619 10.4854 22.9018 10.4591C22.9501 10.4274 23 10.3988 23 10.3419V9.47925C22.9998 9.35219 22.9473 9.23038 22.854 9.14053C22.7606 9.05069 22.6341 9.00015 22.5021 9Z" fill="#2B7AF1"/>
<path id="Vector_2" d="M22.9379 11.8982C22.9187 11.8877 22.897 11.8822 22.875 11.8823C22.8529 11.8825 22.8313 11.8882 22.8122 11.8989L18.7726 14.1866C18.7565 14.1956 18.7427 14.208 18.7322 14.2229C18.7218 14.2378 18.715 14.2547 18.7123 14.2724C18.7095 14.2902 18.711 14.3083 18.7166 14.3254C18.7221 14.3425 18.7316 14.3582 18.7443 14.3713L22.7846 18.5632C22.7961 18.5753 22.8102 18.585 22.8259 18.5916C22.8415 18.5982 22.8585 18.6015 22.8755 18.6015C22.9085 18.6014 22.9402 18.5888 22.9635 18.5663C22.9868 18.5439 23 18.5134 23 18.4817V12.0022C23.0001 11.9812 22.9944 11.9604 22.9835 11.9422C22.9726 11.9239 22.9568 11.9087 22.9379 11.8982Z" fill="#2B7AF1"/>
<path id="Vector_3" d="M17.6086 14.9549C17.5894 14.9348 17.5637 14.9216 17.5356 14.9176C17.5076 14.9135 17.479 14.9189 17.4545 14.9327L15.8353 15.8498C15.7404 15.9026 15.6329 15.9307 15.5234 15.9313C15.4138 15.932 15.3059 15.9053 15.2104 15.8537L13.7854 15.0702C13.7624 15.0576 13.7358 15.0523 13.7095 15.0552C13.6832 15.0581 13.6585 15.069 13.6391 15.0863L8.22777 19.9174C8.21358 19.9302 8.20269 19.946 8.19596 19.9635C8.18923 19.981 8.18685 19.9998 8.189 20.0184C8.19116 20.037 8.1978 20.0548 8.20838 20.0705C8.21897 20.0862 8.23321 20.0992 8.24997 20.1087C8.33413 20.1563 8.41536 20.179 8.49796 20.179H22.3589C22.3832 20.179 22.4069 20.1722 22.4272 20.1594C22.4474 20.1465 22.4633 20.1283 22.4729 20.1068C22.4826 20.0855 22.4856 20.0618 22.4815 20.0389C22.4774 20.0159 22.4664 19.9946 22.4499 19.9776L17.6086 14.9549Z" fill="#2B7AF1"/>
<path id="Vector_4" d="M12.4482 14.515C12.4625 14.5022 12.4735 14.4864 12.4803 14.4688C12.4871 14.4512 12.4896 14.4323 12.4874 14.4136C12.4852 14.3949 12.4785 14.377 12.4678 14.3613C12.4571 14.3456 12.4427 14.3325 12.4258 14.3232L8.18565 11.9922C8.16673 11.9818 8.14532 11.9764 8.12356 11.9766C8.1018 11.9767 8.08045 11.9823 8.06166 11.9929C8.04286 12.0034 8.02727 12.0185 8.01645 12.0367C8.00563 12.0549 7.99996 12.0755 8 12.0964V18.2127C7.99986 18.236 8.00685 18.2589 8.02009 18.2785C8.03332 18.2981 8.05224 18.3135 8.07448 18.3228C8.09673 18.3322 8.12133 18.335 8.14524 18.331C8.16916 18.327 8.19133 18.3164 8.20903 18.3004L12.4482 14.515Z" fill="#2B7AF1"/>
</g>
</g>
</svg>
