<svg width="30" height="30" viewBox="0 0 30 30" fill="none" xmlns="http://www.w3.org/2000/svg">
<circle cx="15" cy="15" r="15" fill="white"/>
<path d="M17.5298 17.9882L18.5798 16.9382C18.7212 16.7985 18.9002 16.7029 19.0949 16.663C19.2896 16.623 19.4917 16.6405 19.6767 16.7132L20.9564 17.2241C21.1433 17.3 21.3036 17.4295 21.4171 17.5964C21.5305 17.7632 21.592 17.9599 21.5939 18.1616V20.5054C21.5928 20.6426 21.564 20.7782 21.5091 20.904C21.4542 21.0298 21.3744 21.1432 21.2746 21.2374C21.1747 21.3315 21.0569 21.4045 20.9281 21.4519C20.7993 21.4993 20.6622 21.5202 20.5251 21.5132C11.558 20.9554 9.74858 13.3616 9.40639 10.4554C9.3905 10.3127 9.40502 10.1682 9.44897 10.0315C9.49293 9.8948 9.56533 9.76895 9.66142 9.66224C9.75751 9.55552 9.8751 9.47036 10.0065 9.41236C10.1378 9.35435 10.28 9.32482 10.4236 9.3257H12.6876C12.8897 9.3263 13.0869 9.38733 13.254 9.50094C13.421 9.61454 13.5503 9.77553 13.6251 9.9632L14.1361 11.2429C14.2112 11.4271 14.2304 11.6294 14.1912 11.8245C14.152 12.0196 14.0562 12.1988 13.9158 12.3398L12.8658 13.3898C12.8658 13.3898 13.4705 17.482 17.5298 17.9882Z" fill="#2B7AF1"/>
</svg>
